<?xml version="1.0" encoding="UTF-8" standalone="no"?>
<!DOCTYPE svg PUBLIC "-//W3C//DTD SVG 1.1//EN"
 "http://www.w3.org/Graphics/SVG/1.1/DTD/svg11.dtd">
<!-- Generated by graphviz version 2.26.3 (20100126.1600)
 -->
<!-- Title: controllers_diagram Pages: 1 -->
<svg width="626pt" height="449pt"
 viewBox="0.00 0.00 625.78 449.10" xmlns="http://www.w3.org/2000/svg" xmlns:xlink="http://www.w3.org/1999/xlink">
<g id="graph1" class="graph" transform="scale(1 1) rotate(0) translate(4 445.1)">
<title>controllers_diagram</title>
<polygon fill="white" stroke="white" points="-4,5 -4,-445.1 622.779,-445.1 622.779,5 -4,5"/>
<!-- AjaxController -->
<g id="node1" class="node"><title>AjaxController</title>
<polyline fill="none" stroke="black" points="13,-1.5 249,-1.5 "/>
<path fill="none" stroke="black" d="M249,-1.5C255,-1.5 261,-7.5 261,-13.5"/>
<polyline fill="none" stroke="black" points="261,-13.5 261,-199.5 "/>
<path fill="none" stroke="black" d="M261,-199.5C261,-205.5 255,-211.5 249,-211.5"/>
<polyline fill="none" stroke="black" points="249,-211.5 13,-211.5 "/>
<path fill="none" stroke="black" d="M13,-211.5C7,-211.5 1,-205.5 1,-199.5"/>
<polyline fill="none" stroke="black" points="1,-199.5 1,-13.5 "/>
<path fill="none" stroke="black" d="M1,-13.5C1,-7.5 7,-1.5 13,-1.5"/>
<text text-anchor="middle" x="131" y="-194.9" font-family="Times Roman,serif" font-size="14.00">AjaxController</text>
<polyline fill="none" stroke="black" points="1,-185.5 261,-185.5 "/>
<text text-anchor="start" x="9" y="-168.9" font-family="Times Roman,serif" font-size="14.00">add_new_car_locations</text>
<text text-anchor="start" x="9" y="-150.9" font-family="Times Roman,serif" font-size="14.00">get_closest_car_state</text>
<text text-anchor="start" x="9" y="-132.9" font-family="Times Roman,serif" font-size="14.00">get_last_cars_location</text>
<text text-anchor="start" x="9" y="-114.9" font-family="Times Roman,serif" font-size="14.00">get_last_cars_location_in_rectangle</text>
<text text-anchor="start" x="9" y="-96.9" font-family="Times Roman,serif" font-size="14.00">get_lpy_in_rect_with_free_slots</text>
<text text-anchor="start" x="9" y="-78.9" font-family="Times Roman,serif" font-size="14.00">get_lpy_in_rectangle</text>
<text text-anchor="start" x="9" y="-60.9" font-family="Times Roman,serif" font-size="14.00">get_lpys</text>
<polyline fill="none" stroke="black" points="1,-51.5 261,-51.5 "/>
<polyline fill="none" stroke="black" points="1,-27.5 261,-27.5 "/>
<text text-anchor="start" x="9" y="-10.9" font-family="Times Roman,serif" font-size="14.00">_layout</text>
</g>
<!-- ApplicationController -->
<g id="node2" class="node"><title>ApplicationController</title>
<polyline fill="none" stroke="black" points="252.888,-223.261 389.888,-223.261 "/>
<path fill="none" stroke="black" d="M389.888,-223.261C395.888,-223.261 401.888,-229.261 401.888,-235.261"/>
<polyline fill="none" stroke="black" points="401.888,-235.261 401.888,-311.261 "/>
<path fill="none" stroke="black" d="M401.888,-311.261C401.888,-317.261 395.888,-323.261 389.888,-323.261"/>
<polyline fill="none" stroke="black" points="389.888,-323.261 252.888,-323.261 "/>
<path fill="none" stroke="black" d="M252.888,-323.261C246.888,-323.261 240.888,-317.261 240.888,-311.261"/>
<polyline fill="none" stroke="black" points="240.888,-311.261 240.888,-235.261 "/>
<path fill="none" stroke="black" d="M240.888,-235.261C240.888,-229.261 246.888,-223.261 252.888,-223.261"/>
<text text-anchor="middle" x="321.388" y="-306.661" font-family="Times Roman,serif" font-size="14.00">ApplicationController</text>
<polyline fill="none" stroke="black" points="240.888,-297.261 401.888,-297.261 "/>
<polyline fill="none" stroke="black" points="240.888,-273.261 401.888,-273.261 "/>
<polyline fill="none" stroke="black" points="240.888,-249.261 401.888,-249.261 "/>
<text text-anchor="start" x="248.888" y="-232.661" font-family="Times Roman,serif" font-size="14.00">_layout</text>
</g>
<!-- ApplicationController&#45;&gt;AjaxController -->
<g id="edge2" class="edge"><title>ApplicationController&#45;&gt;AjaxController</title>
<path fill="none" stroke="black" d="M264.265,-223.227C259.994,-219.485 255.599,-215.637 251.126,-211.719"/>
</g>
<!-- MedicalInstitutionsController -->
<g id="node3" class="node"><title>MedicalInstitutionsController</title>
<polyline fill="none" stroke="black" points="413.779,-55.3322 604.779,-55.3322 "/>
<path fill="none" stroke="black" d="M604.779,-55.3322C610.779,-55.3322 616.779,-61.3322 616.779,-67.3322"/>
<polyline fill="none" stroke="black" points="616.779,-67.3322 616.779,-143.332 "/>
<path fill="none" stroke="black" d="M616.779,-143.332C616.779,-149.332 610.779,-155.332 604.779,-155.332"/>
<polyline fill="none" stroke="black" points="604.779,-155.332 413.779,-155.332 "/>
<path fill="none" stroke="black" d="M413.779,-155.332C407.779,-155.332 401.779,-149.332 401.779,-143.332"/>
<polyline fill="none" stroke="black" points="401.779,-143.332 401.779,-67.3322 "/>
<path fill="none" stroke="black" d="M401.779,-67.3322C401.779,-61.3322 407.779,-55.3322 413.779,-55.3322"/>
<text text-anchor="middle" x="509.279" y="-138.732" font-family="Times Roman,serif" font-size="14.00">MedicalInstitutionsController</text>
<polyline fill="none" stroke="black" points="401.779,-129.332 616.779,-129.332 "/>
<polyline fill="none" stroke="black" points="401.779,-105.332 616.779,-105.332 "/>
<polyline fill="none" stroke="black" points="401.779,-81.3322 616.779,-81.3322 "/>
<text text-anchor="start" x="409.779" y="-64.7322" font-family="Times Roman,serif" font-size="14.00">_layout</text>
</g>
<!-- ApplicationController&#45;&gt;MedicalInstitutionsController -->
<g id="edge4" class="edge"><title>ApplicationController&#45;&gt;MedicalInstitutionsController</title>
<path fill="none" stroke="black" d="M377.507,-223.104C401.405,-201.745 429.223,-176.883 453.125,-155.52"/>
</g>
<!-- MainController -->
<g id="node4" class="node"><title>MainController</title>
<polyline fill="none" stroke="black" points="73.6098,-337.6 167.61,-337.6 "/>
<path fill="none" stroke="black" d="M167.61,-337.6C173.61,-337.6 179.61,-343.6 179.61,-349.6"/>
<polyline fill="none" stroke="black" points="179.61,-349.6 179.61,-427.6 "/>
<path fill="none" stroke="black" d="M179.61,-427.6C179.61,-433.6 173.61,-439.6 167.61,-439.6"/>
<polyline fill="none" stroke="black" points="167.61,-439.6 73.6098,-439.6 "/>
<path fill="none" stroke="black" d="M73.6098,-439.6C67.6098,-439.6 61.6098,-433.6 61.6098,-427.6"/>
<polyline fill="none" stroke="black" points="61.6098,-427.6 61.6098,-349.6 "/>
<path fill="none" stroke="black" d="M61.6098,-349.6C61.6098,-343.6 67.6098,-337.6 73.6098,-337.6"/>
<text text-anchor="middle" x="120.61" y="-423" font-family="Times Roman,serif" font-size="14.00">MainController</text>
<polyline fill="none" stroke="black" points="61.6098,-413.6 179.61,-413.6 "/>
<text text-anchor="start" x="69.6098" y="-397" font-family="Times Roman,serif" font-size="14.00">index</text>
<polyline fill="none" stroke="black" points="61.6098,-387.6 179.61,-387.6 "/>
<polyline fill="none" stroke="black" points="61.6098,-363.6 179.61,-363.6 "/>
<text text-anchor="start" x="69.6098" y="-347" font-family="Times Roman,serif" font-size="14.00">_layout</text>
</g>
<!-- ApplicationController&#45;&gt;MainController -->
<g id="edge6" class="edge"><title>ApplicationController&#45;&gt;MainController</title>
<path fill="none" stroke="black" d="M240.881,-319.509C220.479,-331.229 198.937,-343.604 179.808,-354.593"/>
</g>
<!-- PlanningController -->
<g id="node5" class="node"><title>PlanningController</title>
<polyline fill="none" stroke="black" points="461.426,-336.687 582.426,-336.687 "/>
<path fill="none" stroke="black" d="M582.426,-336.687C588.426,-336.687 594.426,-342.687 594.426,-348.687"/>
<polyline fill="none" stroke="black" points="594.426,-348.687 594.426,-426.687 "/>
<path fill="none" stroke="black" d="M594.426,-426.687C594.426,-432.687 588.426,-438.687 582.426,-438.687"/>
<polyline fill="none" stroke="black" points="582.426,-438.687 461.426,-438.687 "/>
<path fill="none" stroke="black" d="M461.426,-438.687C455.426,-438.687 449.426,-432.687 449.426,-426.687"/>
<polyline fill="none" stroke="black" points="449.426,-426.687 449.426,-348.687 "/>
<path fill="none" stroke="black" d="M449.426,-348.687C449.426,-342.687 455.426,-336.687 461.426,-336.687"/>
<text text-anchor="middle" x="521.926" y="-422.087" font-family="Times Roman,serif" font-size="14.00">PlanningController</text>
<polyline fill="none" stroke="black" points="449.426,-412.687 594.426,-412.687 "/>
<text text-anchor="start" x="457.426" y="-396.087" font-family="Times Roman,serif" font-size="14.00">senddtp</text>
<polyline fill="none" stroke="black" points="449.426,-386.687 594.426,-386.687 "/>
<polyline fill="none" stroke="black" points="449.426,-362.687 594.426,-362.687 "/>
<text text-anchor="start" x="457.426" y="-346.087" font-family="Times Roman,serif" font-size="14.00">_layout</text>
</g>
<!-- ApplicationController&#45;&gt;PlanningController -->
<g id="edge8" class="edge"><title>ApplicationController&#45;&gt;PlanningController</title>
<path fill="none" stroke="black" d="M402.088,-319.308C417.651,-328.188 433.869,-337.442 449.162,-346.168"/>
</g>
</g>
</svg>
