<?xml version="1.0" encoding="UTF-8" standalone="no"?>
<!DOCTYPE svg PUBLIC "-//W3C//DTD SVG 1.1//EN"
 "http://www.w3.org/Graphics/SVG/1.1/DTD/svg11.dtd">
<!-- Generated by graphviz version 2.26.3 (20100126.1600)
 -->
<!-- Title: models_diagram Pages: 1 -->
<svg width="298pt" height="280pt"
 viewBox="0.00 0.00 298.00 280.00" xmlns="http://www.w3.org/2000/svg" xmlns:xlink="http://www.w3.org/1999/xlink">
<g id="graph1" class="graph" transform="scale(1 1) rotate(0) translate(4 276)">
<title>models_diagram</title>
<polygon fill="white" stroke="white" points="-4,5 -4,-276 295,-276 295,5 -4,5"/>
<!-- Car -->
<g id="node1" class="node"><title>Car</title>
<polyline fill="none" stroke="black" points="11.5,-55 102.5,-55 "/>
<path fill="none" stroke="black" d="M102.5,-55C108.5,-55 114.5,-61 114.5,-67"/>
<polyline fill="none" stroke="black" points="114.5,-67 114.5,-131 "/>
<path fill="none" stroke="black" d="M114.5,-131C114.5,-137 108.5,-143 102.5,-143"/>
<polyline fill="none" stroke="black" points="102.5,-143 11.5,-143 "/>
<path fill="none" stroke="black" d="M11.5,-143C5.5,-143 -0.5,-137 -0.5,-131"/>
<polyline fill="none" stroke="black" points="-0.5,-131 -0.5,-67 "/>
<path fill="none" stroke="black" d="M-0.5,-67C-0.5,-61 5.5,-55 11.5,-55"/>
<text text-anchor="middle" x="57" y="-126.4" font-family="Times Roman,serif" font-size="14.00">Car</text>
<polyline fill="none" stroke="black" points="-0.5,-117 114.5,-117 "/>
<text text-anchor="start" x="7.5" y="-100.4" font-family="Times Roman,serif" font-size="14.00">id :integer</text>
<text text-anchor="start" x="7.5" y="-82.4" font-family="Times Roman,serif" font-size="14.00">locations :text</text>
<text text-anchor="start" x="7.5" y="-64.4" font-family="Times Roman,serif" font-size="14.00">time :integer</text>
</g>
<!-- MedicalInstitution -->
<g id="node2" class="node"><title>MedicalInstitution</title>
<polyline fill="none" stroke="black" points="144,-1 278,-1 "/>
<path fill="none" stroke="black" d="M278,-1C284,-1 290,-7 290,-13"/>
<polyline fill="none" stroke="black" points="290,-13 290,-185 "/>
<path fill="none" stroke="black" d="M290,-185C290,-191 284,-197 278,-197"/>
<polyline fill="none" stroke="black" points="278,-197 144,-197 "/>
<path fill="none" stroke="black" d="M144,-197C138,-197 132,-191 132,-185"/>
<polyline fill="none" stroke="black" points="132,-185 132,-13 "/>
<path fill="none" stroke="black" d="M132,-13C132,-7 138,-1 144,-1"/>
<text text-anchor="middle" x="211" y="-180.4" font-family="Times Roman,serif" font-size="14.00">MedicalInstitution</text>
<polyline fill="none" stroke="black" points="132,-171 290,-171 "/>
<text text-anchor="start" x="140" y="-154.4" font-family="Times Roman,serif" font-size="14.00">id :integer</text>
<text text-anchor="start" x="140" y="-136.4" font-family="Times Roman,serif" font-size="14.00">name :text</text>
<text text-anchor="start" x="140" y="-118.4" font-family="Times Roman,serif" font-size="14.00">region :text</text>
<text text-anchor="start" x="140" y="-100.4" font-family="Times Roman,serif" font-size="14.00">latitude :float</text>
<text text-anchor="start" x="140" y="-82.4" font-family="Times Roman,serif" font-size="14.00">longitude :float</text>
<text text-anchor="start" x="140" y="-64.4" font-family="Times Roman,serif" font-size="14.00">surgery :integer</text>
<text text-anchor="start" x="140" y="-46.4" font-family="Times Roman,serif" font-size="14.00">neuro :integer</text>
<text text-anchor="start" x="140" y="-28.4" font-family="Times Roman,serif" font-size="14.00">burn :integer</text>
<text text-anchor="start" x="140" y="-10.4" font-family="Times Roman,serif" font-size="14.00">reanimation :integer</text>
</g>
<!-- ActiveRecord::Base -->
<g id="node3" class="node"><title>ActiveRecord::Base</title>
<ellipse fill="none" stroke="black" cx="134" cy="-253" rx="103.945" ry="18.3848"/>
<text text-anchor="middle" x="134" y="-249.4" font-family="Times Roman,serif" font-size="14.00">ActiveRecord::Base</text>
</g>
<!-- ActiveRecord::Base&#45;&gt;Car -->
<g id="edge2" class="edge"><title>ActiveRecord::Base&#45;&gt;Car</title>
<path fill="none" stroke="black" d="M124.712,-234.424C113.472,-211.944 94.1741,-173.348 79.0486,-143.097"/>
</g>
<!-- ActiveRecord::Base&#45;&gt;MedicalInstitution -->
<g id="edge4" class="edge"><title>ActiveRecord::Base&#45;&gt;MedicalInstitution</title>
<path fill="none" stroke="black" d="M143.288,-234.424C148.288,-224.424 154.882,-211.235 161.995,-197.01"/>
</g>
</g>
</svg>
